# xmcd
#
# Track frame offsets: 
#        150
#        11790
#        21761
#        32417
#        45117
#        58606
#        74314
#        90330
#        106319
#        120042
#        135696
#        150739
#        165341
#        180810
#        192645
#        205805
#        219270
#        231432
#        243965
#        258705
#        271280
#        284697
#        297007
#        308250
#        326673
#
# Disc length: 4541 seconds
#
# Revision: 1
# Processed by: cddbd v1.5.2PL0 Copyright (c) Steve Scherf et al.
# Submitted via: ExactAudioCopyFreeDBPlugin 1.0
#
DISCID=4c11bb19
DTITLE=B.B. King - Complete Recordings 1949-1962 [Enlightenment Record
DTITLE=s]
DYEAR=2015
DGENRE=Blues
TTITLE0=Someday
TTITLE1=I'm Gonna Sit Till You Give In
TTITLE2=Tomorrow Night
TTITLE3=You're Gonna Miss Me
TTITLE4=Got 'Em Bad
TTITLE5=Troubles Don't Last
TTITLE6=Your Letter
TTITLE7=I Can't Explain
TTITLE8=The Wrong Road
TTITLE9=I Need You Baby
TTITLE10=So Many Days
TTITLE11=Down Hearted
TTITLE12=Strange Things
TTITLE13=Easy Listening Blues
TTITLE14=Blues for Me
TTITLE15=Night Long
TTITLE16=Confessin'
TTITLE17=Don't Touch
TTITLE18=Slow Walk (aka "Slow Burn")
TTITLE19=Walkin'
TTITLE20=Hully Gully Twist
TTITLE21=Shoutin' the Blues
TTITLE22=Rambler
TTITLE23=My Sometime Baby
TTITLE24=Down Now
EXTD=
EXTT0=
EXTT1=
EXTT2=
EXTT3=
EXTT4=
EXTT5=
EXTT6=
EXTT7=
EXTT8=
EXTT9=
EXTT10=
EXTT11=
EXTT12=
EXTT13=
EXTT14=
EXTT15=
EXTT16=
EXTT17=
EXTT18=
EXTT19=
EXTT20=
EXTT21=
EXTT22=
EXTT23=
EXTT24=
PLAYORDER=
